<?xml version="1.0" encoding="utf-8"?>
<!-- Generator: Adobe Illustrator 19.0.0, SVG Export Plug-In . SVG Version: 6.00 Build 0)  -->
<svg version="1.1" id="Layer_1" xmlns="http://www.w3.org/2000/svg" xmlns:xlink="http://www.w3.org/1999/xlink" x="0px" y="0px"
	 viewBox="0 0 251.8 51.1" style="enable-background:new 0 0 251.8 51.1;" xml:space="preserve">
<style type="text/css">
	.st0{fill:#5C59A7;}
	.st1{fill:#00AEEF;}
</style>
<path id="XMLID_33_" class="st0" d="M53.5,24.4c-0.7,0.6-1.6,0.9-2.6,0.9c-1.4,0-2.6-0.5-3.4-1.6c-0.9-1-1.3-2.8-1.3-5.4
	c0-2.3,0.4-3.9,1.3-4.9c0.8-1,2-1.5,3.4-1.5c1.1,0,1.9,0.3,2.6,0.8c0.7,0.6,1.1,1.4,1.3,2.5l5.6-1c-0.7-2.3-1.8-4-3.3-5.1
	c-1.5-1.1-3.6-1.7-6.2-1.7c-3.2,0-5.7,1-7.6,2.9c-1.9,2-2.8,4.7-2.8,8.2c0,3.5,0.9,6.2,2.8,8.2s4.3,3,7.5,3c2.7,0,4.9-0.7,6.6-2
	c1.6-1.3,2.7-3.2,3.3-5.8l-5.6-0.9C54.6,22.8,54.1,23.8,53.5,24.4z"/>
<path id="XMLID_36_" class="st0" d="M80.1,10.8c-1.8-2.1-4.3-3.1-7.5-3.1c-2.8,0-5.2,1-7,3c-1.9,2-2.8,4.8-2.8,8.3
	c0,3,0.7,5.4,2.1,7.4c1.8,2.4,4.5,3.6,8.2,3.6c2.3,0,4.3-0.5,5.9-1.6c1.6-1.1,2.7-2.7,3.4-4.7l-5.6-0.9c-0.3,1.1-0.8,1.9-1.4,2.3
	c-0.6,0.5-1.3,0.7-2.2,0.7c-1.3,0-2.4-0.5-3.3-1.4c-0.9-0.9-1.3-2.2-1.4-3.9h14.2C82.8,16.1,82,12.9,80.1,10.8z M68.7,17
	c0-1.5,0.4-2.8,1.2-3.7c0.8-0.9,1.8-1.3,3.1-1.3c1.2,0,2.1,0.4,2.9,1.3c0.8,0.9,1.2,2.1,1.3,3.7H68.7z"/>
<rect id="XMLID_37_" x="87.4" y="0" class="st0" width="5.7" height="29.5"/>
<rect id="XMLID_38_" x="98.8" y="0" class="st0" width="5.7" height="29.5"/>
<path id="XMLID_41_" class="st0" d="M125.9,10.8c-1.8-2.1-4.3-3.1-7.5-3.1c-2.8,0-5.2,1-7,3c-1.9,2-2.8,4.8-2.8,8.3
	c0,3,0.7,5.4,2.1,7.4c1.8,2.4,4.5,3.6,8.2,3.6c2.3,0,4.3-0.5,5.9-1.6c1.6-1.1,2.7-2.7,3.4-4.7l-5.6-0.9c-0.3,1.1-0.8,1.9-1.4,2.3
	c-0.6,0.5-1.3,0.7-2.2,0.7c-1.3,0-2.4-0.5-3.3-1.4c-0.9-0.9-1.3-2.2-1.4-3.9h14.2C128.6,16.1,127.8,12.9,125.9,10.8z M114.5,17
	c0-1.5,0.4-2.8,1.2-3.7c0.8-0.9,1.8-1.3,3.1-1.3c1.2,0,2.1,0.4,2.9,1.3c0.8,0.9,1.2,2.1,1.3,3.7H114.5z"/>
<path id="XMLID_42_" class="st0" d="M151.2,10c-0.5-0.7-1.3-1.3-2.3-1.7c-1-0.4-2.2-0.7-3.4-0.7c-2.8,0-5.2,1.2-7,3.6V8.1h-5.2v21.4
	h5.7v-9.7c0-2.4,0.1-4,0.4-4.9s0.8-1.6,1.6-2.1c0.8-0.5,1.7-0.8,2.6-0.8c0.8,0,1.4,0.2,2,0.6c0.5,0.4,0.9,0.9,1.2,1.6
	c0.2,0.7,0.4,2.2,0.4,4.5v10.9h5.7V16.2c0-1.6-0.1-2.9-0.3-3.8S151.7,10.7,151.2,10z"/>
<path id="XMLID_43_" class="st0" d="M165.8,25.3c-0.4,0-0.7-0.1-1-0.3c-0.3-0.2-0.4-0.4-0.5-0.7c-0.1-0.3-0.1-1.3-0.1-3v-8.6h3.9
	V8.1h-3.9V0.6l-5.7,3.3v4.2H156v4.5h2.6v9.3c0,2,0.1,3.3,0.2,4c0.1,0.9,0.4,1.7,0.8,2.2c0.4,0.5,1,1,1.8,1.3
	c0.8,0.3,1.7,0.5,2.8,0.5c1.7,0,3.2-0.3,4.5-0.8l-0.5-4.4C167.1,25.1,166.3,25.3,165.8,25.3z"/>
<rect id="XMLID_47_" x="197.2" y="0" class="st0" width="5.7" height="29.5"/>
<path id="XMLID_48_" class="st0" d="M222.3,17.1c0,3.1-0.1,5-0.4,5.8c-0.3,0.8-0.8,1.4-1.6,2c-0.8,0.5-1.6,0.8-2.6,0.8
	c-0.8,0-1.5-0.2-2.1-0.6s-0.9-0.9-1.1-1.6c-0.2-0.7-0.3-2.5-0.3-5.5V8.1h-5.7v13.5c0,2,0.3,3.6,0.8,4.7c0.5,1.1,1.3,2,2.5,2.7
	c1.1,0.6,2.4,0.9,3.9,0.9c1.4,0,2.7-0.3,4-1c1.3-0.7,2.3-1.6,3.1-2.7v3.2h5.2V8.1h-5.7V17.1z"/>
<path id="XMLID_49_" class="st0" d="M250,18.6c-1.2-1-3.3-1.8-6.3-2.5s-4.8-1.2-5.3-1.6c-0.4-0.3-0.6-0.6-0.6-1
	c0-0.5,0.2-0.9,0.6-1.1c0.6-0.4,1.7-0.6,3.2-0.6c1.2,0,2.1,0.2,2.7,0.7c0.6,0.4,1.1,1.1,1.3,1.9l5.3-1c-0.5-1.9-1.5-3.3-2.9-4.2
	c-1.4-1-3.6-1.4-6.5-1.4c-3.1,0-5.3,0.6-6.8,1.9c-1.5,1.3-2.2,2.8-2.2,4.7c0,2.1,0.8,3.7,2.5,4.8c1.2,0.8,4.1,1.7,8.7,2.8
	c1,0.2,1.6,0.5,1.9,0.7c0.3,0.3,0.4,0.6,0.4,1.1c0,0.6-0.2,1.1-0.7,1.5c-0.7,0.5-1.8,0.8-3.3,0.8c-1.3,0-2.4-0.3-3.1-0.9
	c-0.7-0.6-1.2-1.4-1.5-2.5l-5.7,0.9c0.5,2,1.6,3.6,3.3,4.8c1.7,1.2,4,1.8,6.9,1.8c3.2,0,5.6-0.7,7.3-2.1c1.6-1.4,2.5-3.1,2.5-5
	C251.8,21,251.2,19.6,250,18.6z"/>
<circle id="XMLID_3_" class="st1" cx="19.8" cy="5.3" r="3.5"/>
<path id="XMLID_104_" class="st0" d="M190.1,10.6c-1.7-1.9-3.8-2.9-6.3-2.9c-1.4,0-2.7,0.3-3.9,1c-1.2,0.7-2.1,1.5-2.8,2.6V8.1h-5.3
	v26.8c0.8-0.7,1.9-1.2,3.1-1.2c1,0,1.9,0.3,2.6,0.8v-7.6c1.1,1.1,2.1,1.9,3,2.4c1,0.5,2,0.7,3.2,0.7c2.5,0,4.6-1,6.3-3
	c1.7-2,2.6-4.7,2.6-8.3C192.7,15.2,191.8,12.5,190.1,10.6z M185.7,23.9c-0.9,1.1-2,1.6-3.3,1.6c-1.4,0-2.5-0.6-3.5-1.7
	c-1-1.1-1.4-2.9-1.4-5.3c0-2.1,0.5-3.7,1.4-4.7c0.9-1.1,2.1-1.6,3.4-1.6c1.3,0,2.4,0.5,3.3,1.6c0.9,1.1,1.3,2.7,1.3,5
	C187,21.1,186.5,22.9,185.7,23.9z"/>
<circle id="XMLID_101_" class="st1" cx="174.9" cy="38.2" r="3.5"/>
<g id="XMLID_1_">
	<path id="XMLID_2_" class="st0" d="M44.4,0h-7.5l-9.6,13.2l-3.7-5.1c-0.9,1.2-2.3,1.9-3.8,1.9c-1.2,0-2.2-0.4-3-1.1l6.8,9.4L0,51.1
		h7.5l19.9-27.5l4.7,6.5h7.5l-8.5-11.7L44.4,0z"/>
</g>
</svg>
